# xmcd
#
# Track frame offsets:
#	182
#	14332
#	32872
#	49732
#	64000
#	77452
#	89740
#	111890
#	123235
#	138982
#	157705
#	177552
#	194995
#	209330
#
# Disc length: 2985 seconds
#
# Revision: 0
# Processed by: cddbd v1.5.2PL0 Copyright (c) Steve Scherf et al.
# Submitted via: EasyCDDAExtractor 12.0.0.1
#
DISCID=c30ba70e
DTITLE=Gang Marcela - Byle do przodu
DYEAR=1992
DGENRE=Country
TTITLE0=Byle do przodu
TTITLE1=Milosc nie liczy lat
TTITLE2=Ja Ciebie mam
TTITLE3=Sprzedaje sny
TTITLE4=Beztroski i wolny
TTITLE5=Wesele u sasiada
TTITLE6=Zapragnac znow
TTITLE7=Niedawno tak
TTITLE8=Nasz kazdy dzien
TTITLE9=Ballada o samotnym Tomie
TTITLE10=Dzien dobry slonce
TTITLE11=A mnie cieszy to co mam
TTITLE12=Tobie, matko, spiewam
TTITLE13=Naprawde nic
EXTD=
EXTT0=
EXTT1=
EXTT2=
EXTT3=
EXTT4=
EXTT5=
EXTT6=
EXTT7=
EXTT8=
EXTT9=
EXTT10=
EXTT11=
EXTT12=
EXTT13=
PLAYORDER=
